<svg width="382" height="411" viewBox="0 0 382 411" fill="none" xmlns="http://www.w3.org/2000/svg">
<path d="M191 0.440002L0.331207 68.4336L29.4128 320.542L191 410.04L352.587 320.542L381.669 68.4336L191 0.440002Z" fill="#B940FF"/>
<path d="M191 0.440002V45.9056V45.7008V253.163V410.04L352.587 320.542L381.669 68.4336L191 0.440002Z" fill="#AD10E3"/>
<path d="M87.3395 276.071C81.9096 276.071 76.9247 274.736 72.3849 272.065C67.8452 269.35 64.2401 265.745 61.5696 261.25C58.8991 256.71 57.5639 251.725 57.5639 246.295C57.5639 240.821 58.8991 235.836 61.5696 231.341C64.2401 226.801 67.8452 223.174 72.3849 220.459C76.9247 217.744 81.9096 216.386 87.3395 216.386H102.027V192.753H87.3395C81.9096 192.753 76.9247 191.418 72.3849 188.747C67.8452 186.077 64.2401 182.494 61.5696 177.999C58.8991 173.459 57.5639 168.452 57.5639 162.977C57.5639 157.503 58.8991 152.518 61.5696 148.023C64.2401 143.527 67.8452 139.945 72.3849 137.274C76.9247 134.559 81.9096 133.202 87.3395 133.202C92.8139 133.202 97.7988 134.559 102.294 137.274C106.834 139.945 110.439 143.527 113.109 148.023C115.824 152.518 117.182 157.503 117.182 162.977V177.531H140.882V162.977C140.882 157.503 142.217 152.518 144.888 148.023C147.558 143.527 151.141 139.945 155.636 137.274C160.176 134.559 165.183 133.202 170.658 133.202C176.132 133.202 181.117 134.559 185.612 137.274C190.107 139.945 193.69 143.527 196.361 148.023C199.031 152.518 200.366 157.503 200.366 162.977C200.366 168.452 199.031 173.459 196.361 177.999C193.69 182.494 190.107 186.077 185.612 188.747C181.117 191.418 176.132 192.753 170.658 192.753H156.037V216.386H170.658C176.132 216.386 181.117 217.744 185.612 220.459C190.107 223.174 193.69 226.801 196.361 231.341C199.031 235.836 200.366 240.821 200.366 246.295C200.366 251.725 199.031 256.71 196.361 261.25C193.69 265.745 190.107 269.35 185.612 272.065C181.117 274.736 176.132 276.071 170.658 276.071C165.183 276.071 160.176 274.736 155.636 272.065C151.141 269.35 147.558 265.745 144.888 261.25C142.217 256.71 140.882 251.725 140.882 246.295V231.608H117.182V246.295C117.182 251.725 115.824 256.71 113.109 261.25C110.439 265.745 106.834 269.35 102.294 272.065C97.7988 274.736 92.8139 276.071 87.3395 276.071ZM87.3395 260.849C90.0545 260.849 92.5024 260.204 94.6832 258.913C96.9086 257.623 98.6889 255.865 100.024 253.639C101.359 251.414 102.027 248.966 102.027 246.295V231.608H87.3395C84.669 231.608 82.2211 232.276 79.9957 233.611C77.7704 234.902 75.9901 236.66 74.6548 238.885C73.3641 241.11 72.7188 243.58 72.7188 246.295C72.7188 248.966 73.3641 251.414 74.6548 253.639C75.9901 255.865 77.7704 257.623 79.9957 258.913C82.2211 260.204 84.669 260.849 87.3395 260.849ZM87.3395 177.531H102.027V162.977C102.027 160.262 101.359 157.814 100.024 155.634C98.6889 153.408 96.9086 151.65 94.6832 150.359C92.5024 149.069 90.0545 148.423 87.3395 148.423C84.669 148.423 82.2211 149.069 79.9957 150.359C77.7704 151.65 75.9901 153.408 74.6548 155.634C73.3641 157.814 72.7188 160.262 72.7188 162.977C72.7188 165.692 73.3641 168.162 74.6548 170.388C75.9901 172.569 77.7704 174.304 79.9957 175.595C82.2211 176.886 84.669 177.531 87.3395 177.531ZM156.037 177.531H170.658C173.373 177.531 175.821 176.886 178.001 175.595C180.182 174.304 181.918 172.569 183.209 170.388C184.544 168.162 185.212 165.692 185.212 162.977C185.212 160.262 184.544 157.814 183.209 155.634C181.918 153.408 180.182 151.65 178.001 150.359C175.821 149.069 173.373 148.423 170.658 148.423C167.943 148.423 165.473 149.069 163.247 150.359C161.022 151.65 159.264 153.408 157.973 155.634C156.682 157.814 156.037 160.262 156.037 162.977V177.531ZM170.658 260.849C173.373 260.849 175.821 260.204 178.001 258.913C180.182 257.623 181.918 255.865 183.209 253.639C184.544 251.414 185.212 248.966 185.212 246.295C185.212 243.58 184.544 241.11 183.209 238.885C181.918 236.66 180.182 234.902 178.001 233.611C175.821 232.276 173.373 231.608 170.658 231.608H156.037V246.295C156.037 248.966 156.682 251.414 157.973 253.639C159.264 255.865 161.022 257.623 163.247 258.913C165.473 260.204 167.943 260.849 170.658 260.849ZM117.182 216.386H140.882V192.753H117.182V216.386ZM237.002 273V136.273H257.631V201.565H259.3L316.648 136.273H342.618L287.473 197.827L342.819 273H317.983L273.787 211.913L257.631 230.473V273H237.002Z" fill="white"/>
</svg>
